<svg xmlns="http://www.w3.org/2000/svg" viewBox="0 0 395.636 395.636"><path d="M197.818 389.43c-105.697 0-191.612-85.915-191.612-191.612C6.206 92.121 92.121 6.206 197.818 6.206c105.697 0 191.612 85.915 191.612 191.612 0 105.697-85.915 191.612-191.612 191.612z" fill="#fdbf5e"/><path d="M197.818 395.636C89.018 395.636 0 306.618 0 197.818S89.018 0 197.818 0s197.818 89.018 197.818 197.818-89.018 197.818-197.818 197.818zm0-383.289c-102.012 0-185.471 83.459-185.471 185.471s83.459 185.471 185.471 185.471 185.471-83.459 185.471-185.471S299.83 12.347 197.818 12.347z" fill="#193651"/><path d="M197.56 364.735c-92.121 0-166.917-74.796-166.917-166.917S105.438 30.901 197.56 30.901s166.917 74.796 166.917 166.917-74.796 166.917-166.917 166.917z" fill="#fff"/><g fill="#193651"><path d="M191.612 45.123h12.347V66.78h-12.347zM191.612 328.275h12.347v21.657h-12.347zM310.05 93.728l-11.382 11.382-8.73-8.73 11.381-11.382zM105.817 298.663l-11.382 11.382-8.731-8.73 11.382-11.383zM328.857 191.612h21.657v12.347h-21.657zM45.123 191.612H66.78v12.347H45.123zM298.547 289.6l11.382 11.381-8.73 8.73-11.383-11.381zM96.709 105.04L85.326 93.658l8.731-8.73 11.382 11.381z"/></g><g fill="#1c76a3"><path d="M281.147 122.699c0 2.133-.776 4.331-2.327 5.883l-63.418 63.354c-1.81-5.56-6.206-9.891-11.766-11.766l63.354-63.418c3.103-3.103 8.663-3.103 11.766 0 1.616 1.616 2.391 3.814 2.391 5.947zM197.818 280.048c-4.978 0-8.663-3.685-8.663-8.663v-57.147a18.467 18.467 0 0 0 8.663 2.133c2.909 0 5.624-.646 8.016-1.81v57.471c.647 4.267-3.038 8.016-8.016 8.016z"/></g><path d="M189.349 181.333a18.465 18.465 0 0 0-8.016 8.016l-68.202-68.202c-2.457-2.457-2.457-5.56 0-8.016 1.228-1.228 2.651-1.875 4.008-1.875 1.358 0 2.78.646 4.008 1.875l68.202 68.202z" fill="#cc432b"/><circle cx="197.818" cy="197.818" r="18.554" fill="#fff"/><path d="M197.818 222.578c-13.576 0-24.76-11.119-24.76-24.76 0-13.64 11.119-24.76 24.76-24.76 13.64 0 24.76 11.119 24.76 24.76 0 13.641-11.184 24.76-24.76 24.76zm0-37.107c-6.788 0-12.347 5.56-12.347 12.347 0 6.788 5.56 12.347 12.347 12.347 6.788 0 12.347-5.56 12.347-12.347.001-6.788-5.559-12.347-12.347-12.347z" fill="#193651"/></svg>