<svg xmlns="http://www.w3.org/2000/svg" viewBox="0 0 512 512"><g fill="#f14742"><path d="M89.461 132.438c-22.804 0-41.29 18.486-41.29 41.29s18.486 41.29 41.29 41.29c1.399 0 2.728-.072 4.093-.207l.003-82.166a41.056 41.056 0 0 0-4.096-.207zM422.539 132.438c22.804 0 41.29 18.486 41.29 41.29s-18.486 41.29-41.29 41.29c-1.399 0-2.728-.072-4.093-.207l-.003-82.166a41.056 41.056 0 0 1 4.096-.207zM459.181 512C443.375 414.029 358.433 339.201 256 339.201c-102.432 0-187.374 74.828-203.181 172.799h406.362z"/></g><circle cx="256" cy="173.728" r="132.437" fill="#fab9a7"/><path d="M256 257.717l-147.106-.002a8.256 8.256 0 0 1-7.336-4.467c-12.618-24.414-19.289-51.911-19.289-79.517C82.27 77.934 160.205 0 256 0s173.73 77.934 173.73 173.729c0 27.608-6.67 55.106-19.289 79.519a8.253 8.253 0 0 1-11.127 3.544 8.256 8.256 0 0 1-3.544-11.127c11.576-22.394 17.444-46.596 17.444-71.934 0-86.689-70.526-157.214-157.214-157.214S98.786 87.041 98.786 173.729c0 23.662 5.118 46.333 15.222 67.468l141.992.002a8.26 8.26 0 0 1 0 16.518z" fill="#463836"/></svg>